<?xml version="1.0" encoding="UTF-8"?>
<svg width="284px" height="248px" viewBox="0 0 284 248" version="1.1" xmlns="http://www.w3.org/2000/svg" xmlns:xlink="http://www.w3.org/1999/xlink">
    <!-- Generator: Sketch 63.1 (92452) - https://sketch.com -->
    <title>volt</title>
    <desc>Created with Sketch.</desc>
    <g id="Page-1" stroke="none" stroke-width="1" fill="none" fill-rule="evenodd">
        <g id="Group" transform="translate(6.000000, 1.000000)" fill="#FFFFFF" fill-rule="nonzero">
            <g id="g26">
                <polygon id="polygon10" points="82.2501931 8 59 50.7973317 111.062848 141 135 98.246771"></polygon>
                <polygon id="polygon12" points="7 49 54.7174039 49 78 6 28.795209 6"></polygon>
                <polygon id="polygon14" points="191.165901 6 173.56076 37.2175693 172 40 219.837045 40 239 6"></polygon>
                <polygon id="polygon16" points="165.987157 51 110.720246 149.347727 54.9514992 53.0659986 7 53.0659986 110.683292 235 214 51"></polygon>
                <path d="M244.918282,0 L188.201335,0 L164.73149,41.7648759 L166.539416,45.0087569 L162.913237,45.0087569 L137.238623,90.6939663 L84.4628211,0.352579759 L25.8391056,0.318720325 L0,50.9385743 L108.859864,242 L165.246354,242 L248.509792,95.6168336 L246.611138,92.308178 L250.388531,92.308178 L274,50.7928315 L244.918282,0 Z M249.282089,90.4054251 L243.326481,90.4054251 L246.317562,95.620514 L164.139175,240.100927 L109.970732,240.100927 L5.87889442,57.4616678 L2.16051214,50.8944098 L27.0067706,2.22147331 L83.1653336,2.22147331 L83.2671263,2.45848934 L137.275504,94.5178741 L164.029268,46.9107738 L169.779078,46.9107738 L166.916344,41.7685562 L189.320316,1.90348905 L243.814053,1.90348905 L271.80777,50.7987201 L249.282089,90.4054251 Z" id="path18" stroke="#FFFFFF" stroke-width="0.5"></path>
                <polygon id="polygon20" points="242 95.9359415 217.359401 53 114 237 161.741392 237"></polygon>
                <polygon id="polygon22" points="223 42.1250501 239.55813 70.7977647 247.673802 85 258.578983 65.8216542 267 51.0704373 242.242653 8"></polygon>
                <polygon id="polygon24" points="172 44 173.815463 47.2430435 218.321756 47.2430435 241.237703 87 245 87 220.126828 44"></polygon>
            </g>
        </g>
    </g>
</svg>