<?xml version="1.0" encoding="UTF-8"?>
<svg width="628px" height="111px" viewBox="0 0 628 111" version="1.1" xmlns="http://www.w3.org/2000/svg" xmlns:xlink="http://www.w3.org/1999/xlink">
    <!-- Generator: Sketch 63.1 (92452) - https://sketch.com -->
    <title>volt</title>
    <desc>Created with Sketch.</desc>
    <defs>
        <path d="M67.9950005,107.656503 L108.186001,2.6565033 L75.3540001,2.6565033 L54.4410004,67.926004 L33.0044998,2.6565033 L0,2.6565033 L41.0549995,107.656503 L67.9950005,107.656503 Z M157.1415,110.313004 L157.1415,110.311503 C190.809,110.311503 214.809,87.3345039 214.809,55.1580048 C214.809,22.9800041 190.809,0.00300521851 157.1415,0.00300521851 C123.387,0.00300521851 99.3,23.0670044 99.3,55.1580048 C99.3,87.2490051 123.387,110.313004 157.1415,110.313004 Z M157.1415,83.3970016 L157.1415,83.3955048 C141.159,83.3955048 129.418499,71.5050041 129.418499,55.1595039 C129.418499,38.8140038 141.159,26.9235031 157.1415,26.9235031 C173.122499,26.9235031 184.690498,38.7285027 184.690498,55.1610031 C184.690498,71.5920021 173.122499,83.3970016 157.1415,83.3970016 Z M287.268002,107.656503 L287.268002,81.1665024 L249.9,81.1665024 L249.9,2.6565033 L220.590001,2.6565033 L220.590001,107.656503 L287.268002,107.656503 Z M328.408502,107.656503 L328.408502,28.7025032 L356.931001,28.7025032 L356.931001,2.6565033 L270.831001,2.6565033 L270.831001,28.7025032 L299.355002,28.7025032 L299.355002,107.656503 L328.408502,107.656503 Z M371.008502,107.656503 L376.824003,90.6030029 L414.042002,90.6030029 L419.827501,107.656503 L451.681501,107.656503 L409.531501,2.6565033 L381.255002,2.6565033 L340.009502,107.656503 L371.008502,107.656503 Z M406.983002,67.9665024 L383.869503,67.9665024 L395.374503,35.4300018 L406.983002,67.9665024 Z M498.371999,110.3085 C531.2535,110.3085 553.684499,85.8990005 553.684499,51.5400009 L496.104,51.5430038 L496.104,69.7800041 L522.181501,69.7800041 C518.880002,77.8770035 509.413502,83.2200027 498.373501,83.2200027 C482.473501,83.2200027 472.0455,71.8470016 472.0455,55.2420021 C472.0455,38.4645012 482.646,27.0915001 498.373501,27.0915001 C509.082001,27.0915001 518.478001,32.7780006 522.277501,41.6235008 L552.591,41.6235008 C548.1495,17.2230011 525.636001,0 498.114001,0 C465.768002,0 442.435501,23.2950005 442.435501,55.2405006 C442.435501,87.1860008 466.2,110.3085 498.371999,110.3085 Z M627.7455,107.656506 L627.7455,82.5660049 L588.090001,82.5660027 L588.090001,66.8475037 L622.576501,66.8475037 L622.576501,43.1205048 L588.090001,43.1205048 L588.090001,27.6615051 L626.476501,27.6615051 L626.476501,2.65650558 L559.290001,2.65650558 L559.290001,107.656506 L627.7455,107.656506 Z" id="path-1"></path>
    </defs>
    <g id="Page-1" stroke="none" stroke-width="1" fill="none" fill-rule="evenodd">
        <g id="Group" fill="#FFFFFF" fill-rule="nonzero">
            <g id="VOLTAGE">
                <use xlink:href="#path-1"></use>
                <use xlink:href="#path-1"></use>
            </g>
        </g>
    </g>
</svg>