<?xml version="1.0" encoding="UTF-8"?>
<svg width="628px" height="374px" viewBox="0 0 628 374" version="1.1" xmlns="http://www.w3.org/2000/svg" xmlns:xlink="http://www.w3.org/1999/xlink">
    <!-- Generator: Sketch 63.1 (92452) - https://sketch.com -->
    <title>volt</title>
    <desc>Created with Sketch.</desc>
    <defs>
        <path d="M67.9950005,369.656503 L108.186001,264.656503 L75.3540001,264.656503 L54.4410004,329.926004 L33.0044998,264.656503 L0,264.656503 L41.0549995,369.656503 L67.9950005,369.656503 Z M157.1415,372.313004 L157.1415,372.311503 C190.809,372.311503 214.809,349.334504 214.809,317.158005 C214.809,284.980004 190.809,262.003005 157.1415,262.003005 C123.387,262.003005 99.3,285.067004 99.3,317.158005 C99.3,349.249005 123.387,372.313004 157.1415,372.313004 Z M157.1415,345.397002 L157.1415,345.395505 C141.159,345.395505 129.418499,333.505004 129.418499,317.159504 C129.418499,300.814004 141.159,288.923503 157.1415,288.923503 C173.122499,288.923503 184.690498,300.728503 184.690498,317.161003 C184.690498,333.592002 173.122499,345.397002 157.1415,345.397002 Z M287.268002,369.656503 L287.268002,343.166502 L249.9,343.166502 L249.9,264.656503 L220.590001,264.656503 L220.590001,369.656503 L287.268002,369.656503 Z M328.408502,369.656503 L328.408502,290.702503 L356.931001,290.702503 L356.931001,264.656503 L270.831001,264.656503 L270.831001,290.702503 L299.355002,290.702503 L299.355002,369.656503 L328.408502,369.656503 Z M371.008502,369.656503 L376.824003,352.603003 L414.042002,352.603003 L419.827501,369.656503 L451.681501,369.656503 L409.531501,264.656503 L381.255002,264.656503 L340.009502,369.656503 L371.008502,369.656503 Z M406.983002,329.966502 L383.869503,329.966502 L395.374503,297.430002 L406.983002,329.966502 Z M498.371999,372.3085 C531.2535,372.3085 553.684499,347.899001 553.684499,313.540001 L496.104,313.543004 L496.104,331.780004 L522.181501,331.780004 C518.880002,339.877003 509.413502,345.220003 498.373501,345.220003 C482.473501,345.220003 472.0455,333.847002 472.0455,317.242002 C472.0455,300.464501 482.646,289.0915 498.373501,289.0915 C509.082001,289.0915 518.478001,294.778001 522.277501,303.623501 L552.591,303.623501 C548.1495,279.223001 525.636001,262 498.114001,262 C465.768002,262 442.435501,285.295 442.435501,317.240501 C442.435501,349.186001 466.2,372.3085 498.371999,372.3085 Z M627.7455,369.656506 L627.7455,344.566005 L588.090001,344.566003 L588.090001,328.847504 L622.576501,328.847504 L622.576501,305.120505 L588.090001,305.120505 L588.090001,289.661505 L626.476501,289.661505 L626.476501,264.656506 L559.290001,264.656506 L559.290001,369.656506 L627.7455,369.656506 Z" id="path-1"></path>
    </defs>
    <g id="Page-1" stroke="none" stroke-width="1" fill="none" fill-rule="evenodd">
        <g id="Group" transform="translate(0.000000, 1.000000)" fill="#EF820D" fill-rule="nonzero">
            <g id="g26" transform="translate(177.000000, 0.000000)">
                <polygon id="polygon10" points="82.2501931 8 59 50.7973317 111.062848 141 135 98.246771"></polygon>
                <polygon id="polygon12" points="7 49 54.7174039 49 78 6 28.795209 6"></polygon>
                <polygon id="polygon14" points="191.165901 6 173.56076 37.2175693 172 40 219.837045 40 239 6"></polygon>
                <polygon id="polygon16" points="165.987157 51 110.720246 149.347727 54.9514992 53.0659986 7 53.0659986 110.683292 235 214 51"></polygon>
                <path d="M244.918282,0 L188.201335,0 L164.73149,41.7648759 L166.539416,45.0087569 L162.913237,45.0087569 L137.238623,90.6939663 L84.4628211,0.352579759 L25.8391056,0.318720325 L0,50.9385743 L108.859864,242 L165.246354,242 L248.509792,95.6168336 L246.611138,92.308178 L250.388531,92.308178 L274,50.7928315 L244.918282,0 Z M249.282089,90.4054251 L243.326481,90.4054251 L246.317562,95.620514 L164.139175,240.100927 L109.970732,240.100927 L5.87889442,57.4616678 L2.16051214,50.8944098 L27.0067706,2.22147331 L83.1653336,2.22147331 L83.2671263,2.45848934 L137.275504,94.5178741 L164.029268,46.9107738 L169.779078,46.9107738 L166.916344,41.7685562 L189.320316,1.90348905 L243.814053,1.90348905 L271.80777,50.7987201 L249.282089,90.4054251 Z" id="path18" stroke="#EF820D" stroke-width="0.5"></path>
                <polygon id="polygon20" points="242 95.9359415 217.359401 53 114 237 161.741392 237"></polygon>
                <polygon id="polygon22" points="223 42.1250501 239.55813 70.7977647 247.673802 85 258.578983 65.8216542 267 51.0704373 242.242653 8"></polygon>
                <polygon id="polygon24" points="172 44 173.815463 47.2430435 218.321756 47.2430435 241.237703 87 245 87 220.126828 44"></polygon>
            </g>
            <g id="VOLTAGE">
                <use xlink:href="#path-1"></use>
                <use xlink:href="#path-1"></use>
            </g>
        </g>
    </g>
</svg>